<?xml version="1.0" standalone="no"?>
<!DOCTYPE svg PUBLIC "-//W3C//DTD SVG 20010904//EN"
 "http://www.w3.org/TR/2001/REC-SVG-20010904/DTD/svg10.dtd">
<svg version="1.0" xmlns="http://www.w3.org/2000/svg"
 width="260.000000pt" height="260.000000pt" viewBox="0 0 260.000000 260.000000"
 preserveAspectRatio="xMidYMid meet">
<metadata>
Created by potrace 1.14, written by Peter Selinger 2001-2017
</metadata>
<g transform="translate(0.000000,260.000000) scale(0.100000,-0.100000)"
fill="#000000" stroke="none">
<path d="M0 1300 l0 -1300 1300 0 1300 0 0 1300 0 1300 -1300 0 -1300 0 0
-1300z m1371 481 c21 -22 29 -39 29 -65 0 -34 4 -37 85 -86 90 -52 104 -57
122 -39 6 6 27 11 47 12 101 3 143 -132 56 -181 l-30 -17 0 -107 c0 -83 3
-108 13 -108 21 0 56 -43 63 -75 7 -40 -9 -80 -42 -101 -29 -20 -90 -22 -107
-5 -18 18 -31 14 -121 -40 -82 -48 -86 -52 -86 -85 0 -52 -45 -94 -99 -94 -55
0 -92 33 -100 90 -6 42 -8 44 -94 93 -80 45 -90 49 -112 37 -14 -7 -38 -13
-55 -12 -98 3 -132 117 -55 179 l35 28 0 95 0 95 -35 28 c-57 46 -57 126 1
163 29 20 90 22 107 5 18 -18 32 -13 122 39 81 49 85 52 85 86 0 52 45 94 100
94 33 0 48 -6 71 -29z"/>
<path d="M1272 1754 c-24 -17 -30 -62 -10 -82 7 -7 24 -12 38 -12 33 0 50 17
50 51 0 24 -30 59 -50 59 -3 0 -16 -7 -28 -16z"/>
<path d="M1128 1588 c-82 -47 -88 -52 -88 -83 0 -36 -30 -80 -60 -90 -18 -6
-20 -16 -20 -106 l0 -100 40 -38 c32 -30 40 -45 40 -72 0 -33 4 -37 91 -87 84
-48 92 -51 112 -37 27 19 81 19 110 0 21 -13 29 -11 115 38 88 50 92 53 92 87
0 38 22 71 58 89 21 11 22 18 22 110 0 97 -1 99 -27 117 -41 26 -52 45 -53 84
0 33 -4 37 -91 87 -87 51 -91 52 -119 38 -36 -19 -68 -19 -100 0 -14 8 -27 14
-30 14 -3 -1 -44 -24 -92 -51z m189 -24 c8 -21 -13 -42 -28 -27 -13 13 -5 43
11 43 6 0 13 -7 17 -16z m3 -84 c0 -13 -7 -20 -20 -20 -13 0 -20 7 -20 20 0
13 7 20 20 20 13 0 20 -7 20 -20z m-222 -47 c-5 -26 -38 -29 -38 -4 0 15 6 21
21 21 14 0 19 -5 17 -17z m448 6 c3 -6 0 -17 -7 -25 -18 -17 -44 -2 -36 20 7
18 33 21 43 5z m-380 -58 c-9 -14 -33 -14 -41 -1 -4 6 -1 18 6 26 11 13 14 13
27 0 8 -8 11 -19 8 -25z m194 24 c35 -18 60 -62 60 -105 0 -66 -53 -120 -117
-120 -58 0 -123 64 -123 120 0 30 25 75 56 99 32 25 83 27 124 6z m118 -12 c5
-17 -26 -29 -40 -15 -6 6 -7 15 -3 22 9 14 37 9 43 -7z m-315 -169 c9 -10 -4
-34 -18 -34 -17 0 -28 17 -20 30 7 11 28 13 38 4z m312 -4 c4 -6 1 -18 -6 -26
-11 -13 -14 -13 -27 0 -8 8 -11 19 -8 25 9 14 33 14 41 1z m-377 -43 c4 -22
-27 -35 -38 -16 -10 15 7 42 24 36 6 -2 12 -11 14 -20z m442 -7 c0 -13 -7 -20
-20 -20 -13 0 -20 7 -20 20 0 13 7 20 20 20 13 0 20 -7 20 -20z m-220 -50 c0
-13 -7 -20 -20 -20 -13 0 -20 7 -20 20 0 13 7 20 20 20 13 0 20 -7 20 -20z
m-3 -66 c8 -21 -13 -42 -28 -27 -13 13 -5 43 11 43 6 0 13 -7 17 -16z"/>
<path d="M1273 1370 c-26 -11 -43 -40 -43 -74 0 -63 89 -90 129 -40 27 34 26
57 -1 88 -27 29 -55 38 -85 26z"/>
<path d="M906 1544 c-31 -30 -10 -94 30 -94 34 0 54 20 54 55 0 50 -50 73 -84
39z"/>
<path d="M1620 1540 c-11 -11 -20 -27 -20 -35 0 -21 36 -55 59 -55 45 0 68 62
35 94 -21 22 -50 20 -74 -4z"/>
<path d="M906 1134 c-37 -37 -1 -103 49 -90 14 4 31 17 37 31 23 52 -46 100
-86 59z"/>
<path d="M1620 1135 c-30 -36 -4 -95 41 -95 25 0 49 27 49 55 0 47 -62 74 -90
40z"/>
<path d="M1262 928 c-21 -21 -14 -66 13 -84 23 -15 27 -15 50 0 27 18 34 63
13 84 -15 15 -61 15 -76 0z"/>
</g>
</svg>
